# This file uses centimeters as units for non-parametric coordinates.

mtllib horero.mtl
g default
v -0.026289 0.186046 -0.005197
v 0.022943 0.186051 -0.005526
v -0.001675 0.237207 -0.004327
v -0.026343 0.185851 0.007260
v 0.022889 0.185856 0.006931
v -0.001729 0.237012 0.008130
v -0.011426 -0.007331 0.002636
v 0.005631 -0.007330 0.002522
v -0.011433 0.188407 0.006594
v 0.005625 0.188409 0.006480
v -0.011382 0.188591 -0.005132
v 0.005676 0.188592 -0.005246
v -0.011375 -0.007148 -0.009090
v 0.005682 -0.007146 -0.009203
vt 0.421875 0.020934
vt 0.421875 0.291566
vt 0.656250 0.156250
vt 0.375000 0.312500
vt 0.458333 0.312500
vt 0.541667 0.312500
vt 0.625000 0.312500
vt 0.375000 0.688440
vt 0.458333 0.688440
vt 0.541667 0.688440
vt 0.625000 0.688440
vt 0.421875 0.708434
vt 0.421875 0.979066
vt 0.656250 0.843750
vt 0.375000 0.000000
vt 0.625000 0.000000
vt 0.625000 0.250000
vt 0.375000 0.250000
vt 0.625000 0.500000
vt 0.375000 0.500000
vt 0.625000 0.750000
vt 0.375000 0.750000
vt 0.625000 1.000000
vt 0.375000 1.000000
vt 0.875000 0.000000
vt 0.875000 0.250000
vt 0.125000 0.000000
vt 0.125000 0.250000
vn -0.000019 -0.999877 -0.015696
vn -0.000019 -0.999877 -0.015696
vn -0.000019 -0.999877 -0.015696
vn -0.000019 -0.999877 -0.015696
vn 0.901139 0.433399 0.010680
vn 0.901139 0.433399 0.010680
vn 0.901139 0.433399 0.010680
vn 0.901139 0.433399 0.010680
vn -0.901146 0.433506 0.002856
vn -0.901146 0.433506 0.002856
vn -0.901146 0.433506 0.002856
vn -0.901146 0.433506 0.002856
vn -0.006672 0.020215 -0.999773
vn -0.006672 0.020215 -0.999773
vn -0.006672 0.020215 -0.999773
vn 0.006672 -0.020216 0.999773
vn 0.006672 -0.020216 0.999773
vn 0.006672 -0.020216 0.999773
vn 0.006675 -0.020216 0.999773
vn 0.006675 -0.020216 0.999773
vn 0.006675 -0.020216 0.999773
vn 0.006675 -0.020216 0.999773
vn 0.000017 0.999877 0.015677
vn 0.000017 0.999877 0.015677
vn 0.000017 0.999877 0.015677
vn 0.000017 0.999877 0.015677
vn -0.006675 0.020216 -0.999773
vn -0.006675 0.020216 -0.999773
vn -0.006675 0.020216 -0.999773
vn -0.006675 0.020216 -0.999773
vn -0.000017 -0.999877 -0.015671
vn -0.000017 -0.999877 -0.015671
vn -0.000017 -0.999877 -0.015671
vn -0.000017 -0.999877 -0.015671
vn 0.999991 -0.000053 0.004332
vn 0.999991 -0.000053 0.004332
vn 0.999991 -0.000053 0.004332
vn 0.999991 -0.000053 0.004332
vn -0.999991 0.000053 -0.004332
vn -0.999991 0.000053 -0.004332
vn -0.999991 0.000053 -0.004332
vn -0.999991 0.000053 -0.004332
s off
g pPrism2
usemtl lambert4SG
f 1/4/1 2/5/2 5/9/3 4/8/4
f 2/5/5 3/6/6 6/10/7 5/9/8
f 3/6/9 1/7/10 4/11/11 6/10/12
f 1/1/13 3/3/14 2/2/15
f 4/13/16 5/12/17 6/14/18
f 7/15/19 8/16/20 10/17/21 9/18/22
f 9/18/23 10/17/24 12/19/25 11/20/26
f 11/20/27 12/19/28 14/21/29 13/22/30
f 13/22/31 14/21/32 8/23/33 7/24/34
f 8/16/35 14/25/36 12/26/37 10/17/38
f 13/27/39 7/15/40 9/18/41 11/28/42
