# This file uses centimeters as units for non-parametric coordinates.

mtllib alfombra.mtl
g default
v -2.572851 0.004665 1.460488
v 2.572851 0.004665 1.460488
v -2.572851 0.040317 1.460488
v 2.572851 0.040317 1.460488
v -2.572851 0.040317 -1.460488
v 2.572851 0.040317 -1.460488
v -2.572851 0.004665 -1.460488
v 2.572851 0.004665 -1.460488
vt 0.026408 -0.077817
vt 2.026408 -0.077817
vt 2.113848 -0.365906
vt -1.038509 -0.365906
vt 2.113848 1.210273
vt -1.038509 1.210273
vt 2.026408 0.922183
vt 0.026408 0.922183
vn 0.000000 0.000000 1.000000
vn 0.000000 0.000000 1.000000
vn 0.000000 0.000000 1.000000
vn 0.000000 0.000000 1.000000
vn 0.000000 1.000000 0.000000
vn 0.000000 1.000000 0.000000
vn 0.000000 1.000000 0.000000
vn 0.000000 1.000000 0.000000
vn 0.000000 0.000000 -1.000000
vn 0.000000 0.000000 -1.000000
vn 0.000000 0.000000 -1.000000
vn 0.000000 0.000000 -1.000000
vn 0.000000 -1.000000 0.000000
vn 0.000000 -1.000000 0.000000
vn 0.000000 -1.000000 0.000000
vn 0.000000 -1.000000 0.000000
vn 1.000000 0.000000 0.000000
vn 1.000000 0.000000 0.000000
vn 1.000000 0.000000 0.000000
vn 1.000000 0.000000 0.000000
vn -1.000000 0.000000 0.000000
vn -1.000000 0.000000 0.000000
vn -1.000000 0.000000 0.000000
vn -1.000000 0.000000 0.000000
s off
g pCube1
usemtl lambert2SG
f 1/1/1 2/2/2 4/3/3 3/4/4
f 3/4/5 4/3/6 6/5/7 5/6/8
f 5/6/9 6/5/10 8/7/11 7/8/12
f 7/8/13 8/7/14 2/2/15 1/1/16
f 2/2/17 8/7/18 6/5/19 4/3/20
f 7/8/21 1/1/22 3/4/23 5/6/24
